<?xml version="1.0"?>
<svg width="640" height="480" xmlns="http://www.w3.org/2000/svg">
 <title>network cloud</title>
 <g>
  <title>Layer 1</title>
  <g externalResourcesRequired="false" id="svg_6">
   <path d="m378.182159,105.3815c-23.498596,-4.904694 -47.279022,0.708252 -63.695862,12.902008c-8.577118,-8.030785 -20.19101,-14.228928 -34.121399,-17.136307c-35.851288,-7.482788 -72.7845,9.127151 -82.390869,37.053909c-0.705887,2.052063 -0.891754,4.115631 -1.270325,6.168045c-32.285828,-2.614288 -63.178284,13.129868 -71.845383,38.32637c-8.587906,24.965973 7.617905,50.494476 36.745224,60.990814c-1.583298,2.674438 -3.059555,5.429688 -4.070938,8.369537c-9.606232,27.926758 11.738358,56.63443 47.589722,64.117218c17.560089,3.66568 35.30603,1.513214 50.037216,-4.876282c8.118805,13.52948 23.255859,24.41864 43.210297,28.583282c28.470673,5.942566 57.361206,-3.470947 72.958588,-21.513611c6.318085,3.484131 13.340912,6.36615 21.25174,8.017609c35.851318,7.482788 72.705078,-9.144043 82.311462,-37.070801c4.830627,-14.042999 1.841583,-28.254333 -6.878448,-39.901459c8.630005,-6.410095 15.385162,-14.529816 18.694946,-24.151886c9.606384,-27.927094 -11.738281,-56.634766 -47.589569,-64.117569c-3.774017,-0.787354 -7.554382,-1.230911 -11.318481,-1.500015c2.230927,-24.524094 -18.003357,-47.662125 -49.61792,-54.260864z" id="path4952" stroke-dashoffset="0" stroke-miterlimit="4" stroke-linejoin="round" stroke-width="14.790461" stroke="#003f7f" fill="url(#svg_1)"/>
   <g externalResourcesRequired="false" id="svg_5"/>
  </g>
 </g>
 <defs>
  <linearGradient id="svg_1">
   <stop offset="0" stop-color="#aad4ff"/>
   <stop offset="1" stop-opacity="0.996094" stop-color="#ffffff"/>
  </linearGradient>
 </defs>
</svg>