<?xml version="1.0" encoding="UTF-8" standalone="no"?>
<svg
   xmlns:dc="http://purl.org/dc/elements/1.1/"
   xmlns:cc="http://creativecommons.org/ns#"
   xmlns:rdf="http://www.w3.org/1999/02/22-rdf-syntax-ns#"
   xmlns:svg="http://www.w3.org/2000/svg"
   xmlns="http://www.w3.org/2000/svg"
   xmlns:sodipodi="http://sodipodi.sourceforge.net/DTD/sodipodi-0.dtd"
   xmlns:inkscape="http://www.inkscape.org/namespaces/inkscape"
   id="svg3525"
   version="1.1"
   inkscape:version="0.91 r13725"
   width="25.998646"
   height="25.998646"
   viewBox="0 0 25.998646 25.998646"
   sodipodi:docname="flat switch.svg">
  <defs
     id="defs3529" />
  <path
     style="fill:#000000"
     d="M 1.7961719,25.686297 C 0.08063085,24.837115 0.11016385,25.057419 0.11016385,13.109487 c 0,-14.5548915 -1.55556795,-12.99932329 12.99932315,-12.99932329 14.554891,0 12.999323,-1.55556821 12.999323,12.99932329 0,11.966748 0.0303,11.742654 -1.701252,12.580885 -1.353361,0.655152 -21.2868591,0.651559 -22.6113861,-0.0041 z m 6.235454,-4.264891 c 0.101558,-0.898243 0.101558,-0.898243 1.792532,-1.038389 1.9323791,-0.160155 2.2697571,-0.352576 2.2697571,-1.294538 0,-0.871387 -0.169563,-0.962898 -2.2342591,-1.205803 -1.726472,-0.203115 -1.726472,-0.203115 -1.785078,-0.914015 -0.128624,-1.560231 -0.374112,-1.50459 -2.531103,0.573687 -1.698278,1.636302 -1.709303,1.503255 0.279622,3.374293 1.847019,1.737542 2.063553,1.787033 2.208529,0.504765 z M 19.714429,18.585708 c 2.692296,-2.182697 2.736116,-2.418293 0.788157,-4.237471 -1.833905,-1.712665 -2.264629,-1.818525 -2.354338,-0.578628 -0.06246,0.863236 -0.06246,0.863236 -1.856696,1.08185 -1.883529,0.229492 -2.160272,0.396637 -2.160272,1.304744 0,0.831312 0.271922,1.032947 1.53617,1.139098 2.521391,0.211706 2.519898,0.211072 2.519898,1.070512 0,1.291583 0.174237,1.316673 1.527081,0.219895 z M 8.0707259,12.449365 c 0.06246,-0.863236 0.06246,-0.863236 1.848185,-1.066351 1.8961881,-0.215678 2.1662811,-0.383083 2.1718941,-1.346152 0.0042,-0.7248298 -0.319968,-0.9416918 -1.626883,-1.0882718 -2.5284831,-0.283589 -2.4322961,-0.239404 -2.4322961,-1.117295 0,-1.4058638 -0.733367,-1.1345389 -2.89438,1.070838 -1.241652,1.2671418 -1.241403,1.2684158 0.579141,2.9686038 1.833906,1.712665 2.26463,1.818525 2.354339,0.578628 z M 20.675499,8.6766262 C 22.373777,7.0403238 22.384803,7.1733704 20.395877,5.3023322 18.548858,3.5647898 18.332324,3.5153004 18.187348,4.7975681 18.08579,5.6958103 18.08579,5.6958103 16.361562,5.863556 c -1.974073,0.1920524 -2.236503,0.3392027 -2.236503,1.2540553 0,0.9212945 0.300371,1.0902814 2.252168,1.267056 1.708563,0.1547449 1.708563,0.1547449 1.767169,0.8656459 0.128624,1.5602308 0.374112,1.5045898 2.531103,-0.573687 z"
     id="path3535"
     inkscape:connector-curvature="0" />
</svg>
