<?xml version="1.0" encoding="UTF-8" standalone="no"?>
<svg
   xmlns:dc="http://purl.org/dc/elements/1.1/"
   xmlns:cc="http://creativecommons.org/ns#"
   xmlns:rdf="http://www.w3.org/1999/02/22-rdf-syntax-ns#"
   xmlns:svg="http://www.w3.org/2000/svg"
   xmlns="http://www.w3.org/2000/svg"
   xmlns:sodipodi="http://sodipodi.sourceforge.net/DTD/sodipodi-0.dtd"
   xmlns:inkscape="http://www.inkscape.org/namespaces/inkscape"
   id="svg3434"
   version="1.1"
   inkscape:version="0.91 r13725"
   width="26.000113"
   height="26.000113"
   viewBox="0 0 26.000113 26.000113"
   sodipodi:docname="flat router.svg">
  <defs
     id="defs3438" />
  <path
     style="fill:#000000"
     d="M 11.984627,25.949536 C 1.0721725,24.956002 -3.870518,11.844811 3.7071145,3.9922538 10.775804,-3.3328949 23.140886,-0.03098785 25.649395,9.8516053 27.81868,18.397785 20.732298,26.745975 11.984627,25.949536 Z m 1.560226,-3.295188 c 2.771023,-2.406988 3.340121,-3.662078 1.660501,-3.662078 -0.43077,0 -0.783217,-0.01853 -0.783217,-0.04117 0,-0.213081 -0.312385,-2.46818 -0.352209,-2.542593 -0.155839,-0.291186 -1.035094,-0.453792 -1.581802,-0.292532 -0.515308,0.151999 -0.545192,0.201756 -0.629512,1.048161 -0.201936,2.027032 -0.09655,1.828133 -0.968672,1.828133 -1.5825645,0 -1.4584945,0.502958 0.662531,2.685791 1.377178,1.417311 1.445892,1.450982 1.99238,0.976287 z M 7.1509375,15.871381 c 0.96771,-0.728966 2.763756,-2.471038 2.833311,-2.748165 0.05942,-0.236754 -0.03721,-0.378775 -0.77323,-1.136396 -2.478168,-2.5509093 -3.167824,-2.7993297 -3.167824,-1.14108 0,0.43077 -0.01853,0.783217 -0.04117,0.783217 -0.213081,0 -2.468181,0.312385 -2.542594,0.352209 -0.291186,0.155839 -0.453791,1.035094 -0.292531,1.581802 0.151998,0.515308 0.201756,0.545192 1.048161,0.629512 2.027032,0.201936 1.828133,0.09655 1.828133,0.968672 0,1.241639 0.217321,1.380975 1.107743,0.710229 z M 19.91038,16.119174 c 0.117906,-0.125363 0.12379,-0.164804 0.139212,-0.93307 0.01809,-0.901216 -0.183286,-0.792318 1.837421,-0.993624 0.83815,-0.0835 0.877371,-0.10605 1.035399,-0.595356 0.186083,-0.576172 -0.0337,-1.654224 -0.339209,-1.663813 -0.0059,-2.03e-4 -0.557692,-0.06874 -1.226312,-0.152344 -0.668619,-0.08361 -1.232626,-0.15201 -1.253347,-0.15201 -0.02072,0 -0.04496,-0.363852 -0.05386,-0.808561 -0.03236,-1.6163276 -0.678383,-1.3819695 -3.127048,1.134405 -1.062817,1.092206 -1.062817,0.998305 0,2.090511 1.735211,1.783192 2.658424,2.424015 2.987749,2.073862 z M 13.776262,9.8062006 c 0.295886,-0.1432358 0.645875,-1.6373114 0.645875,-2.7571886 0,-0.022643 0.352447,-0.041169 0.783217,-0.041169 1.65825,0 1.409829,-0.6896561 -1.14108,-3.1678243 -1.045637,-1.0158189 -0.97844,-1.0134335 -1.957216,-0.069479 -2.5973585,2.5049498 -2.8726975,3.2373035 -1.217116,3.2373035 0.872126,0 0.766736,-0.1988989 0.968672,1.8281329 0.06997,0.7023514 0.07984,0.7416517 0.213942,0.8516261 0.351219,0.2880325 1.227669,0.3490438 1.703706,0.1185986 z"
     id="path3444"
     inkscape:connector-curvature="0" />
</svg>
