<?xml version="1.0" encoding="utf-8"?>
<!DOCTYPE svg PUBLIC "-//W3C//DTD SVG 1.1//EN" "http://www.w3.org/Graphics/SVG/1.1/DTD/svg11.dtd">
<svg version="1.1" id="Layer_1" xmlns="http://www.w3.org/2000/svg" xmlns:xlink="http://www.w3.org/1999/xlink" x="0px" y="0px"
	 width="512px" height="512px" viewBox="0 0 512 512" enable-background="new 0 0 512 512" xml:space="preserve">
<path d="M480,112h-64V80c0-17.656-14.313-32-32-32H32C14.313,48,0,62.344,0,80v256c0,17.688,14.313,32,32,32h144l-32,64h128l-32-64
	h112v64c0,17.688,14.313,32,32,32h96c17.688,0,32-14.313,32-32V144C512,126.344,497.688,112,480,112z M32,304V80h352v32
	c-17.688,0-32,14.344-32,32v160H32z M432,432c-8.844,0-16-7.156-16-16s7.156-16,16-16s16,7.156,16,16S440.844,432,432,432z M432,368
	c-8.844,0-16-7.156-16-16s7.156-16,16-16s16,7.156,16,16S440.844,368,432,368z M480,240h-64h-32v-32h96V240z M480,176h-96v-32h96
	V176z"/>
</svg>
