<?xml version="1.0"?>
<svg width="1154" height="866" xmlns="http://www.w3.org/2000/svg">
 <title>Computer Screen and desktop</title>

 <g>
  <title>Layer 1</title>
  <path id="svg_1" fill="#FCFDFD" fill-rule="evenodd" stroke="#FCFDFD" stroke-width="0.5px" d="m0,433l0,-433l577,0l577,0l0,433l0,433l-577,0l-577,0l0,-433zm634.5,-236.199997l1.5,0.199997l42,5.800003q42,5.699997 48.799988,8.399994q6.700012,2.800003 9.200012,7.300003q2.5,4.5 3.5,14.5q1,10 1.299988,15.5l0.200012,5.5l1,-0.199997l1,-0.300003l1,-0.5l1,-0.5l31.5,-15q31.5,-15 32,-15.300003l0.5,-0.199997l1.5,-0.800003q1.5,-0.699997 2.5,-1.199997l1,-0.5l2.5,-1q2.5,-1 4,-1.300003l1.5,-0.199997l1,-0.199997q1,-0.300003 1,0l0,0.199997l69.5,8.800003q69.5,8.699997 71.5,9l2,0.199997l0.200012,0q0.299988,0 0.599976,0.5l0.200012,0.5l1.799988,22q1.700012,22 8.200012,195q6.5,173 6,189.5q-0.5,16.5 -5.799988,19.299988q-5.200012,2.700012 -10.700012,3l-5.5,0.200012l-4.5,0.200012l-4.5,0.299988l3,0.5l3,0.5l1.5,0.299988l1.5,0.200012l1.5,0q1.5,0 1.5,1.5q0,1.5 2.799988,3q2.700012,1.5 3.200012,2q0.5,0.5 0.799988,0.700012l0.200012,0.299988l0.200012,0.299988l0.299988,0.200012l0,3l0,3l-0.299988,3l-0.200012,3l-13,0.200012q-13,0.299988 -187.5,4l-174.5,3.799988l-1,0.200012q-1,0.299988 -222,5.799988q-221,5.5 -262,5.5q-41,0 -45,-3.5l-4,-3.5l-0.200001,-0.299988l-0.299999,-0.200012l-0.299999,-0.200012l-0.200001,-0.299988l-0.200001,-0.299988l-0.299999,-0.200012l-0.299999,-0.200012l-0.200001,-0.299988l-0.200001,-0.299988l-0.299999,-0.200012l-0.299999,-0.200012l-0.200001,-0.299988l-0.200001,-0.299988l-0.299999,-0.200012l-0.299999,-0.200012l-0.200001,-0.299988l-0.200001,-0.299988l-0.299999,-0.200012l-0.299999,-1.5l-0.200001,-1.5l1,-0.200012l1,-0.299988l0.200001,-0.299988l0.299999,-0.200012l0.299999,-0.200012l0.200001,-0.299988l1.5,0l1.5,0l0.199997,0.299988l0.300003,0.200012l0.300003,0.200012l0.199997,0.299988l3.5,1.299988q3.5,1.200012 3.699997,3.700012l0.300003,2.5l0.5,-1l0.5,-1l0.5,-4q0.5,-4 0.800003,-4.5l0.199997,-0.5l0.199997,-1l0.300003,-1l0.300003,-0.200012l0.199997,-0.299988l0.199997,-0.299988l0.300003,-0.200012l0.300003,-0.200012l0.199997,-0.299988l6.5,-0.299988q6.5,-0.200012 5.699997,-2.200012q-0.699997,-2 0.800003,-6.5q1.5,-4.5 2.800003,-5.700012q1.199997,-1.299988 22.699997,-2.799988l21.5,-1.5l-1.5,-0.5q-1.5,-0.5 -4,-1.5l-2.5,-1l11.800003,0.299988q11.699997,0.200012 11.399994,0.400024q-0.199997,0.299988 3.300003,0.599976l3.5,0.200012l20,-1.200012q20,-1.299988 26.5,-0.599976q6.5,0.799988 7,0q0.5,-0.700012 13.5,-0.700012q13,0 12,-0.5q-1,-0.5 6,-0.5q7,0 7,0.299988l0,0.200012l1.5,-0.200012l1.5,-0.299988l9,-0.5q9,-0.5 8,-1q-1,-0.5 10.5,-0.799988q11.5,-0.200012 12,1q0.5,1.299988 20.5,1.299988q20,0 26.5,-0.700012q6.5,-0.799988 6.5,-1.799988q0,-1 8.5,-1l8.5,0l0,-1l0,-1l-0.200012,0l-0.299988,0l-0.5,-1.5l-0.5,-1.5l-0.5,-1q-0.5,-1 -1.799988,-0.799988q-1.200012,0.299988 -2,-1q-0.700012,-1.200012 -1.700012,-9.700012q-1,-8.5 3.700012,-20.5l4.799988,-12l0.200012,-1q0.299988,-1 3.799988,-10l3.5,-9l0.299988,-0.200012l0.200012,-0.299988l0.200012,-0.299988l0.299988,-0.200012l0,-2l0,-2l-0.299988,-0.200012l-0.200012,-0.299988l-21.5,-0.5q-21.5,-0.5 -105,-1.5l-83.5,-1l0,-0.299988l0,-0.200012l-20.5,-0.799988q-20.5,-0.700012 -29,-2.700012q-8.5,-2 -11.300003,-4.700012q-2.699997,-2.799988 -4.199997,-9.299988q-1.5,-6.5 -0.5,-44q1,-37.5 8.5,-196.5q7.5,-159 9.800003,-168.800003q2.199997,-9.699997 5.199997,-12.699997q3,-3 21,-3q18,0 254.5,30.5q236.5,30.5 238,30.800003zm513.5,476.199997l0.5,3l0,1l0,1l-0.5,1l-0.5,1l-0.300049,1.5l-0.199951,1.5l-3.5,0.200012q-3.5,0.299988 -38.5,0.299988q-35,0 -75,-1.700012l-40,-1.799988l-0.200012,-2l-0.299988,-2l-0.299988,-0.200012l-0.200012,-0.299988l-0.200012,-0.299988l-0.299988,-0.200012l-0.299988,-2.5l-0.200012,-2.5l1.5,0q1.5,0 2.5,-3.799988q1,-3.700012 6,-7.200012q5,-3.5 21,-8.5q16,-5 24,-6q8,-1 32,0q24,1 38.5,4q14.5,3 21.300049,7.700012q6.699951,4.799988 9.699951,9.299988q3,4.5 3.5,7.5z"/>
  <path id="svg_2" fill="#FDFDFD" fill-rule="evenodd" stroke="#FDFDFD" stroke-width="0.5px" d="m497,582l10,0l0,0.200012l0,0.299988l66,0.5q66,0.5 70,0.799988l4,0.200012l6.799988,0.5q6.700012,0.5 7,33.5l0.200012,33l-1,0.200012q-1,0.299988 -10,0.299988q-9,0 -10.5,1.700012q-1.5,1.799988 -16,1.299988l-14.5,-0.5l-17,0.200012q-17,0.299988 -60.5,0.599976l-43.5,0.200012l-2.5,-0.200012q-2.5,-0.299988 -6,0l-3.5,0.200012l-0.200012,-0.5q-0.299988,-0.5 -0.599976,-0.5l-0.200012,0l-2,-0.200012q-2,-0.299988 -4.5,-0.799988l-2.5,-0.5l-0.200012,-0.299988l-0.299988,-0.200012l-0.299988,-0.200012l-0.200012,-0.299988l-0.200012,-0.299988l-0.299988,-0.200012l0,-2q0,-2 2.299988,-2.5q2.200012,-0.5 2,-6q-0.299988,-5.5 -1.599976,-6q-1.200012,-0.5 -1.200012,-1.5l0,-1l0.200012,0l0.299988,0l0.5,-1l0.5,-1l0.5,-1.5l0.5,-1.5l0.5,-1.5l0.5,-1.5l0.5,-1q0.5,-1 7,-15q6.5,-14 8.200012,-20q1.799988,-6 11.799988,-6z"/>
  <path id="svg_3" fill="#2C2C2C" fill-rule="evenodd" stroke="#2C2C2C" stroke-width="0.5px" d="m839,303l0,-1l2,0.200012q2,0.299988 5.5,0l3.5,-0.200012l0,0.200012l0,0.299988l-1,0.5l-1,0.5l0.200012,0.299988l0.299988,0.200012l0,1l0,1l-0.299988,0.200012l-0.200012,0.299988l4.799988,19.700012q4.700012,19.799988 11.700012,45.799988q7,26 8.5,31q1.5,5 1.200012,6q-0.200012,1 0.799988,1q1,0 1.200012,2.5l0.299988,2.5l0.299988,0.200012l0.200012,0.299988l0.200012,0.299988l0.299988,0.200012l0.299988,-2.5q0.200012,-2.5 6.700012,-2.299988l6.5,0.299988l0.200012,0.299988l0.299988,0.200012l0.299988,0.200012l0.200012,0.299988l0.200012,0.299988l0.299988,0.200012l1.299988,47.200012q1.200012,47.299988 0.400024,48q-0.700012,0.799988 2.799988,38.799988q3.5,38 4,50.5q0.5,12.5 1,15.5q0.5,3 0.799988,3.200012l0.200012,0.299988l1.5,0.5l1.5,0.5l0,0.299988l0,0.200012l-7.5,0l-7.5,0l0,-0.200012l0,-0.299988l-1,-0.299988l-1,-0.200012l-0.200012,-10q-0.299988,-10 -3.299988,-45q-3,-35 -3.5,-51.5l-0.5,-16.5l-0.5,-2l-0.5,-2l-0.5,2l-0.5,2l-0.5,-1l-0.5,-1l-0.299988,1.5q-0.200012,1.5 0.799988,1.700012l1,0.299988l-0.200012,0.299988l-0.299988,0.200012l-0.299988,0.200012l-0.200012,0.299988l-0.200012,0.299988l-0.299988,0.200012l-0.5,1.5l-0.5,1.5l-0.5,-1l-0.5,-1l-0.5,-2.5q-0.5,-2.5 -2,-13.5q-1.5,-11 -2,-8.5l-0.5,2.5l-0.5,-10.5q-0.5,-10.5 -2,-33.5q-1.5,-23 -4.200012,-24q-2.799988,-1 -3.599976,-3.5q-0.700012,-2.5 -7.700012,-34.5l-7,-32l-0.299988,-3.5l-0.200012,-3.5l-1,0l-1,0l-0.200012,6l-0.299988,6l-0.5,-2.5l-0.5,-2.5l-0.5,-3.5q-0.5,-3.5 -1.5,-13.5q-1,-10 -0.5,-11.5q0.5,-1.5 -0.200012,-2q-0.799988,-0.5 -0.799988,-1.5q0,-1 1,-1.200012q1,-0.299988 0,-0.599976l-1,-0.200012l0,-1z"/>
  <path id="svg_4" fill="#2F2F30" fill-rule="evenodd" stroke="#2F2F30" stroke-width="0.5px" d="m966.799988,259.5l0.200012,-24.5l1,0q1,0 8.799988,195.5q7.700012,195.5 7.200012,212q-0.5,16.5 -5.799988,19.299988q-5.200012,2.700012 -10.700012,3l-5.5,0.200012l0,-0.200012q0,-0.299988 2.5,-0.799988q2.5,-0.5 -7.5,-0.799988l-10,-0.200012l0.5,-0.799988q0.5,-0.700012 6.5,-1.200012l6,-0.5l0.200012,-0.299988l0.299988,-0.200012l0.299988,-0.200012l0.200012,-0.299988l2,-0.5l2,-0.5l1,-0.5l1,-0.5l-2.5,-0.5l-2.5,-0.5l-1,-0.5q-1,-0.5 -1.200012,-0.799988q-0.299988,-0.200012 -4.599976,-1.200012q-4.200012,-1 -5.200012,-18q-1,-17 -3,-16.799988q-2,0.299988 -21.5,-0.400024l-19.5,-0.799988l0,-0.200012l0,-0.299988l-1.5,-0.5l-1.5,-0.5l-0.200012,-0.299988q-0.299988,-0.200012 -0.799988,-3.200012q-0.5,-3 -1,-15.5q-0.5,-12.5 -4,-50.5q-3.5,-38 -2.799988,-38.799988q0.799988,-0.700012 -0.400024,-48l-1.299988,-47.200012l-0.299988,-0.200012l-0.200012,-0.299988l-0.200012,-0.299988l-0.299988,-0.200012l-0.299988,-0.200012l-0.200012,-0.299988l-6.5,-0.299988q-6.5,-0.200012 -6.700012,2.299988l-0.299988,2.5l-0.299988,-0.200012l-0.200012,-0.299988l-0.200012,-0.299988l-0.299988,-0.200012l-0.299988,-2.5q-0.200012,-2.5 -1.200012,-2.5q-1,0 -0.799988,-1q0.299988,-1 -1.200012,-6q-1.5,-5 -8.5,-31q-7,-26 -11.700012,-45.799988l-4.799988,-19.700012l0.200012,-0.299988l0.299988,-0.200012l0,-1l0,-1l-0.299988,-0.200012l-0.200012,-0.299988l1,-0.5l1,-0.5l0,-0.299988l0,-0.200012l11.5,0q11.5,0 11.5,1q0,1 16.5,1.799988q16.5,0.700012 17,1l0.5,0.200012l13.5,2.200012q13.5,2.299988 25.5,3.599976q12,1.200012 12.200012,10.200012q0.299988,9 0.799988,22.5l0.5,13.5l0.299988,0.200012l0.200012,0.299988l2,0.299988l2,0.200012l-0.200012,-13.5q-0.299988,-13.5 -0.599976,-21.5l-0.200012,-8l0.200012,0l0.299988,0l0.5,-4.5q0.5,-4.5 0.5,-14.5q0,-10 0.5,-13.5q0.5,-3.5 1,-1.5q0.5,2 0.799988,-22.5zm-57.799988,154.700012l-4,-0.700012l6.5,-0.299988q6.5,-0.200012 7.700012,25.299988q1.299988,25.5 1.599976,47.5l0.200012,22l-2,-0.200012l-2,-0.299988l-0.200012,-0.299988l-0.299988,-0.200012l-0.5,-6q-0.5,-6 -1.799988,-46q-1.200012,-40 -5.200012,-40.799988zm45.200012,111l-4.700012,-0.200012l-2.5,-2q-2.5,-2 -3.5,-5q-1,-3 -0.5,-8q0.5,-5 3.200012,-7.799988q2.799988,-2.700012 8.299988,-2.200012q5.5,0.5 7.700012,3.200012q2.299988,2.799988 2.299988,9.299988q0,6.5 -2.700012,9.700012q-2.799988,3.299988 -7.599976,3z"/>
  <path id="svg_5" fill="#2B2B2B" fill-rule="evenodd" stroke="#2B2B2B" stroke-width="0.5px" d="m835.200012,302l-1.200012,-56l1.5,0.800003q1.5,0.699997 7.5,0.699997l6,0l0,-0.300003l0,-0.199997l11.5,1.800003q11.5,1.699997 10,2.199997q-1.5,0.5 23,3.5q24.5,3 27,3.299988l2.5,0.200012l0,0.200012q0,0.299988 4,0.799988l4,0.5l0,0.299988l0,0.200012l-6.5,0.200012q-6.5,0.299988 -10,0.799988l-3.5,0.5l-1,0.299988l-1,0.200012l0.200012,1l0.299988,1l0,0.5l0,0.5l-0.299988,0.200012l-0.200012,0.299988l0.799988,0.700012q0.700012,0.799988 1.700012,4.799988q1,4 5.299988,16.5q4.200012,12.5 6.400024,14.5q2.299988,2 2.799988,3.5q0.5,1.5 0.799988,2l0.200012,0.5l-1,-0.200012q-1,-0.299988 -5.5,-0.799988l-4.5,-0.5l-4.5,-0.299988l-4.5,-0.200012l-0.5,-0.200012q-0.5,-0.299988 -28.5,-2l-28,-1.799988l-3.5,0.200012q-3.5,0.299988 -5.5,0l-2,-0.200012l0,1l0,1l1,0.200012q1,0.299988 0,0.599976q-1,0.200012 -1,1.200012q0,1 0.799988,1.5q0.700012,0.5 0.200012,2q-0.5,1.5 0.5,11.5q1,10 1.5,13.5l0.5,3.5l0.5,2.5l0.5,2.5l0.299988,-6l0.200012,-6l1,0l1,0l0.200012,3.5l0.299988,3.5l7,32q7,32 7.700012,34.5q0.799988,2.5 3.599976,3.5q2.700012,1 4.200012,24q1.5,23 2,33.5l0.5,10.5l0.5,-2.5q0.5,-2.5 2,8.5q1.5,11 2,13.5l0.5,2.5l0.5,1l0.5,1l0.5,-1.5l0.5,-1.5l0.299988,-0.200012l0.200012,-0.299988l0.200012,-0.299988l0.299988,-0.200012l0.299988,-0.200012l0.200012,-0.299988l-1,-0.299988q-1,-0.200012 -0.799988,-1.700012l0.299988,-1.5l0.5,1l0.5,1l0.5,-2l0.5,-2l0.5,2l0.5,2l0.5,16.5q0.5,16.5 3.5,51.5q3,35 3.299988,45l0.200012,10l1,0.200012l1,0.299988l0,0.299988l0,0.200012l-9,0.200012q-9,0.299988 -10.200012,9.599976l-1.299988,9.200012l-0.299988,-0.200012l-0.200012,-0.299988l-0.200012,-0.299988l-0.299988,-0.200012l-0.299988,-0.200012l-0.200012,-0.299988l-0.200012,-0.299988l-0.299988,-0.200012l-0.299988,0.200012l-0.200012,0.299988l-0.200012,0.299988l-0.299988,0.200012l-0.5,-1l-0.5,-1l-0.299988,-0.200012l-0.200012,-0.299988l-0.200012,-0.299988l-0.299988,-0.200012l-0.299988,-0.200012l-0.200012,-0.299988l-1,-0.5q-1,-0.5 -2.5,-1.5q-1.5,-1 -3.299988,-3.299988q-1.700012,-2.200012 -4.200012,-46.200012q-2.5,-44 -4.5,-85q-2,-41 -2.5,-63q-0.5,-22 -1.200012,-23l-0.799988,-1l-0.5,-0.200012q-0.5,-0.299988 -2,-0.799988q-1.5,-0.5 -3.700012,-25.200012q-2.299988,-24.799988 -3.599976,-80.799988z"/>
  <path id="svg_6" fill="#666767" fill-rule="evenodd" stroke="#666767" stroke-width="0.5px" d="m807.5,239.199997l0.5,-0.199997l4.200012,202.5q4.299988,202.5 4,204q-0.200012,1.5 -16.400024,3.5q-16.299988,2 -20.599976,2.799988q-4.200012,0.700012 -9.200012,1.200012l-5,0.5l0.200012,0.299988l0.299988,0.200012l0.299988,0.200012l0.200012,0.299988l-1.5,0.299988l-1.5,0.200012l0,1.5l0,1.5l-2.5,0q-2.5,0 -2.5,-1.5q0,-1.5 -3.5,-1.299988q-3.5,0.299988 -5,-0.200012q-1.5,-0.5 -13,0.200012q-11.5,0.799988 -11.700012,-0.200012q-0.299988,-1 -3.599976,-0.799988q-3.200012,0.299988 -13.700012,1.299988q-10.5,1 -11.700012,2.299988q-1.299988,1.200012 -6.599976,3q-5.200012,1.700012 -4,3q1.299988,1.200012 -3,1.700012l-4.200012,0.5l-0.5,0.200012q-0.5,0.299988 -2.5,0.299988q-2,0 -30.5,-1.5q-28.5,-1.5 -28,-2q0.5,-0.5 -13,-1.200012l-13.5,-0.799988l0,-1.5l0,-1.5l9.5,-0.200012l9.5,-0.299988l-2.5,-0.5q-2.5,-0.5 -3.5,-1l-1,-0.5l3.5,-0.5q3.5,-0.5 3.5,-0.799988l0,-0.200012l14.5,0.5q14.5,0.5 16,-1.299988q1.5,-1.700012 10.5,-1.700012q9,0 10,-0.299988l1,-0.200012l-0.200012,-33q-0.299988,-33 -7,-33.5l-6.799988,-0.5l0,-0.200012l0,-0.299988l9.5,0q9.5,0 42.5,-0.5q33,-0.5 37,-2q4,-1.5 5.799988,-4.799988q1.700012,-3.200012 2.200012,-50.700012q0.5,-47.5 -1.200012,-146l-1.799988,-98.5l0.5,-5.799988q0.5,-5.700012 33,-20.700012q32.5,-15 33,-15.300003z"/>
  <path id="svg_7" fill="#6C9DBC" fill-rule="evenodd" stroke="#6C9DBC" stroke-width="0.5px" d="m196.199997,186.800003l-0.199997,-24.300003l5.5,-0.300003l5.5,-0.199997l175,21.199997q175,21.300003 175.5,21.600006l0.5,0.199997l1,1.199997q1,1.300003 -0.200012,2q-1.299988,0.800003 -0.299988,8.300003q1,7.5 0.5,10q-0.5,2.5 -1.5,3.5q-1,1 -1.5,16q-0.5,15 -4.5,41.5q-4,26.5 -4.5,34q-0.5,7.5 -1.5,10q-1,2.5 -3.5,22q-2.5,19.5 -4.5,53q-2,33.5 -3.5,85q-1.5,51.5 -2.799988,55.299988q-1.200012,3.700012 -2,4.400024q-0.700012,0.799988 -0.400024,1q0.200012,0.299988 -19.299988,0.599976l-19.5,0.200012l-39,-0.200012q-39,-0.299988 -99.5,-1l-60.5,-0.799988l-15.5,-0.200012q-15.5,-0.299988 -37.5,-1.299988q-22,-1 -27.199997,-2.299988q-5.300003,-1.200012 -6,-2q-0.800003,-0.700012 -0.600006,-1.400024q0.300003,-0.799988 0.800003,-52.299988q0.5,-51.5 -1.5,-116.5q-2,-65 -2.5,-87.5q-0.5,-22.5 -2.5,-49.5q-2,-27 -2.300003,-51.199997z"/>
  <path id="svg_8" fill="#333333" fill-rule="evenodd" stroke="#333333" stroke-width="0.5px" d="m828,220.5l-4,-3.5l69.5,8.800003q69.5,8.699997 71.5,9l2,0.199997l0,0.199997q0,0.300003 0.5,0.600006l0.5,0.199997l-0.799988,24q-0.700012,24 -1.200012,22q-0.5,-2 -1,1.5q-0.5,3.5 -0.5,13.5q0,10 -0.5,14.5l-0.5,4.5l-0.299988,0l-0.200012,0l0,-2.5l0,-2.5l-5,-0.200012q-5,-0.299988 -18,-1.599976l-13,-1.200012l-0.200012,-0.5q-0.299988,-0.5 -0.799988,-2q-0.5,-1.5 -2.799988,-3.5q-2.200012,-2 -6.400024,-14.5q-4.299988,-12.5 -5.299988,-16.5q-1,-4 -1.700012,-4.799988l-0.799988,-0.700012l0.200012,-0.299988l0.299988,-0.200012l0,-0.5l0,-0.5l-0.299988,-1l-0.200012,-1l1,-0.200012l1,-0.299988l3.5,-0.5q3.5,-0.5 10,-0.799988l6.5,-0.200012l12.200012,1.5q12.299988,1.5 12.799988,18.5l0.5,17l0.299988,1l0.200012,1l2.5,0l2.5,0l-0.200012,-10.5q-0.299988,-10.5 -1,-19.299988q-0.799988,-8.700012 -19.299988,-10.200012l-18.5,-1.5l0,0.299988l0,0.200012l-2.5,-0.200012q-2.5,-0.299988 -27,-3.299988q-24.5,-3 -23,-3.5q1.5,-0.5 -7.5,-0.800003q-9,-0.199997 -9,-1.199997q0,-1 -2.5,-1.5l-2.5,-0.5l-2.5,-0.199997q-2.5,-0.300003 -4.5,-1.600006q-2,-1.199997 -2.200012,-2.199997q-0.299988,-1 -0.599976,0.5q-0.200012,1.5 -1.200012,1.5q-1,0 -0.799988,-1q0.299988,-1 -0.400024,-1.800003q-0.799988,-0.699997 0,-1.399994q0.700012,-0.800003 0.200012,-1.800003q-0.5,-1 -2.799988,-8q-2.200012,-7 -6.200012,-10.5z"/>
  <path id="svg_9" fill="#141515" fill-rule="evenodd" stroke="#141515" stroke-width="0.5px" d="m634.5,196.800003l1.5,0.199997l2,1.800003q2,1.699997 11,3.699997q9,2 8.5,2.5q-0.5,0.5 5,3q5.5,2.5 8,3l2.5,0.5l-0.200012,0.300003l-0.299988,0.199997l-0.299988,0.199997l-0.200012,0.300003l-1,0.5l-1,0.5l1.5,0.5l1.5,0.5l1,0.5l1,0.5l-11,0.300003l-11,0.199997l-4,-0.199997q-4,-0.300003 -47.5,-5.600006l-43.5,-5.199997l-0.5,-0.199997q-0.5,-0.300003 -175.5,-21.600006l-175,-21.199997l0,-0.199997l0,-0.300003l-3.5,-0.5l-3.5,-0.5l-5,-0.5q-5,-0.5 -30,-3.199997q-25,-2.800003 -25.800003,-0.800003q-0.699997,2 -1.199997,0l-0.5,-2l-1.5,16q-1.5,16 -6,135q-4.5,119 -4.5,124q0,5 -0.5,4q-0.5,-1 -2.5,56q-2,57 -0.699997,58.200012q1.199997,1.299988 3.199997,1.799988q2,0.5 21.5,0.799988l19.5,0.200012l0,1.200012q0,1.299988 15.800003,4q15.699997,2.799988 17.399994,10.299988q1.800003,7.5 2.800003,7.5l1,0l-0.199997,1l-0.300003,1l-0.300003,0.200012l-0.199997,0.299988l1.5,0.299988l1.5,0.200012l0,1l0,1l-21,0l-21,0l-20.5,-0.799988q-20.5,-0.700012 -29,-2.700012q-8.5,-2 -11.300003,-4.700012q-2.699997,-2.799988 -4.199997,-9.299988q-1.5,-6.5 -0.5,-44q1,-37.5 8.5,-196.5q7.5,-159 9.800003,-168.800003q2.199997,-9.699997 5.199997,-12.699997q3,-3 21,-3q18,0 254.5,30.5q236.5,30.5 238,30.800003z"/>
  <path id="svg_10" fill="#262626" fill-rule="evenodd" stroke="#262626" stroke-width="0.5px" d="m831.5,377l0,-2l0.5,1.5l0.5,1.5l1.5,12q1.5,12 1.5,13.5l0,1.5l0,3.5l0,3.5l0.299988,-0.200012l0.200012,-0.299988l0.200012,-0.299988l0.299988,-0.200012l0.5,-6l0.5,-6l0.299988,4.5l0.200012,4.5l0.799988,0.5q0.700012,0.5 1.200012,15.5q0.5,15 1,25.5l0.5,10.5l0.5,-22q0.5,-22 1.799988,-25.5l1.200012,-3.5l0.799988,1q0.700012,1 1.200012,23q0.5,22 2.5,63q2,41 4.5,85q2.5,44 4.200012,46.200012q1.799988,2.299988 3.299988,3.299988q1.5,1 2.5,1.5l1,0.5l0.200012,0.299988l0.299988,0.200012l0.299988,0.200012l0.200012,0.299988l0.200012,0.299988l0.299988,0.200012l0.5,1l0.5,1l0.299988,-0.200012l0.200012,-0.299988l0.200012,-0.299988l0.299988,-0.200012l0.299988,0.200012l0.200012,0.299988l0.200012,0.299988l0.299988,0.200012l0.299988,0.200012l0.200012,0.299988l0.200012,0.299988l0.299988,0.200012l1.299988,-9.200012q1.200012,-9.299988 10.200012,-9.599976l9,-0.200012l7.5,0l7.5,0l19.5,0.799988q19.5,0.700012 21.5,0.400024q2,-0.200012 3,16.799988q1,17 5.200012,18q4.299988,1 4.599976,1.200012q0.200012,0.299988 1.200012,0.799988l1,0.5l2.5,0.5l2.5,0.5l-1,0.5l-1,0.5l-2,0.5l-2,0.5l-0.200012,0.299988l-0.299988,0.200012l-0.299988,0.200012l-0.200012,0.299988l-6,0.5q-6,0.5 -6.5,1.200012l-0.5,0.799988l-4,-0.200012q-4,-0.299988 -4.5,-0.799988q-0.5,-0.5 -14,-1.5q-13.5,-1 -53.5,-0.299988l-40,0.799988l-0.5,-0.200012l-0.5,-0.299988l0.200012,-0.299988l0.299988,-0.200012l0.299988,-0.200012l0.200012,-0.299988l3,-0.299988l3,-0.200012l0.200012,-1l0.299988,-1l0.299988,-0.200012l0.200012,-0.299988l-1,-0.5l-1,-0.5l-1,-0.299988q-1,-0.200012 -1,-1.200012q0,-1 -2.5,-1l-2.5,0l0,-1q0,-1 2.5,-1.799988q2.5,-0.700012 1,-1.200012q-1.5,-0.5 -1.299988,-6.799988q0.299988,-6.200012 -1,-39.200012l-1.200012,-33l0.200012,0l0.299988,0l0.5,-15q0.5,-15 1,-20.5q0.5,-5.5 0.5,-80.5l0,-75l0,-2zm10.700012,85.799988l-0.200012,-0.299988l0.200012,-0.299988q0.299988,-0.200012 0.299988,0.299988l0,0.5l-0.299988,-0.200012z"/>
  <path id="svg_11" fill="#0F0F0F" fill-rule="evenodd" stroke="#0F0F0F" stroke-width="0.5px" d="m166,551.200012l0,-1.200012l35.5,0.799988q35.5,0.700012 62.5,0.700012l27,0l0,-0.299988l0,-0.200012l60.5,0.799988q60.5,0.700012 99.5,1l39,0.200012l0,0.200012l0,0.299988l9,0.5l9,0.5l-3.5,0.299988l-3.5,0.200012l-8,0.200012l-8,0.299988l0.200012,0.299988l0.299988,0.200012l0.299988,0.200012l0.200012,0.299988l0.200012,0.299988l0.299988,0.200012l0.299988,0.200012l0.200012,0.299988l0.200012,0.299988l0.299988,0.200012l0.299988,0.200012l0.200012,0.299988l2.5,0.5l2.5,0.5l7,1q7,1 6,1.5q-1,0.5 2,1.200012q3,0.799988 3.799988,6.799988q0.700012,6 0,6.799988q-0.799988,0.700012 -1.799988,1.200012l-1,0.5l6.5,0.5l6.5,0.5l2.5,0.5l2.5,0.5l-5,0.5q-5,0.5 -10,0.799988l-5,0.200012l-10,0q-10,0 -11.799988,6q-1.700012,6 -8.200012,20q-6.5,14 -7,15l-0.5,1l-0.5,1.5l-0.5,1.5l-0.5,1.5l-0.5,1.5l-0.5,1l-0.5,1l-0.299988,0l-0.200012,0l-0.200012,-1l-0.299988,-1l-0.5,-5q-0.5,-5 -1,-9l-0.5,-4l-0.5,2.5q-0.5,2.5 -0.799988,2.700012q-0.200012,0.299988 -40.700012,1.299988q-40.5,1 -48.5,2.700012l-8,1.799988l0,-8l0,-8l0.200012,-1q0.299988,-1 3.799988,-10l3.5,-9l0.299988,-0.200012l0.200012,-0.299988l0.200012,-0.299988l0.299988,-0.200012l0,-2l0,-2l-0.299988,-0.200012l-0.200012,-0.299988l-21.5,-0.5q-21.5,-0.5 -105,-1.5l-83.5,-1l0,-0.299988l0,-0.200012l21,0l21,0l0,-1l0,-1l-1.5,-0.200012l-1.5,-0.299988l0.199997,-0.299988l0.300003,-0.200012l0.300003,-1l0.199997,-1l-1,0q-1,0 -2.800003,-7.5q-1.699997,-7.5 -17.399994,-10.299988q-15.800003,-2.700012 -15.800003,-4z"/>
  <path id="svg_12" fill="#6A8FAC" fill-rule="evenodd" stroke="#6A8FAC" stroke-width="0.5px" d="m559,206.199997l-1,-1.199997l43.5,5.199997q43.5,5.300003 47.5,5.600006l4,0.199997l0,0.199997l0,0.300003l34,4.5q34,4.5 35.200012,15.199997q1.299988,10.800003 2.799988,165.300003q1.5,154.5 0.200012,156.299988q-1.200012,1.700012 -102.700012,0.200012q-101.5,-1.5 -111.5,-2l-10,-0.5l0,-0.299988l0,-0.200012l3.5,-0.200012l3.5,-0.299988l-9,-0.5l-9,-0.5l0,-0.299988l0,-0.200012l19.5,-0.200012q19.5,-0.299988 19.299988,-0.599976q-0.299988,-0.200012 0.400024,-1q0.799988,-0.700012 2,-4.400024q1.299988,-3.799988 2.799988,-55.299988q1.5,-51.5 3.5,-85q2,-33.5 4.5,-53q2.5,-19.5 3.5,-22q1,-2.5 1.5,-10q0.5,-7.5 4.5,-34q4,-26.5 4.5,-41.5q0.5,-15 1.5,-16q1,-1 1.5,-3.5q0.5,-2.5 -0.5,-10q-1,-7.5 0.299988,-8.300003q1.200012,-0.699997 0.200012,-2z"/>
  <path id="svg_13" fill="#272828" fill-rule="evenodd" stroke="#272828" stroke-width="0.5px" d="m638,198.800003l-2,-1.800003l42,5.800003q42,5.699997 48.799988,8.399994q6.700012,2.800003 9.200012,7.300003q2.5,4.5 3.5,14.5q1,10 1.299988,15.5l0.200012,5.5l-0.200012,4q-0.299988,4 -0.299988,13.5l0,9.5l0.299988,0l0.200012,0l1.799988,98.5q1.700012,98.5 1.200012,146q-0.5,47.5 -2.200012,50.700012q-1.799988,3.299988 -5.799988,4.799988q-4,1.5 -37,2q-33,0.5 -42.5,0.5l-9.5,0l0,0.299988l0,0.200012l-4,-0.200012q-4,-0.299988 -70,-0.799988l-66,-0.5l0,-0.299988l0,-0.200012l5,-0.200012q5,-0.299988 10,-0.799988l5,-0.5l-2.5,-0.5l-2.5,-0.5l-6.5,-0.5l-6.5,-0.5l1,-0.5q1,-0.5 1.799988,-1.200012q0.700012,-0.799988 0,-6.799988q-0.799988,-6 -3.799988,-6.799988q-3,-0.700012 -2,-1.200012q1,-0.5 -6,-1.5l-7,-1l-2.5,-0.5l-2.5,-0.5l-0.200012,-0.299988l-0.299988,-0.200012l-0.299988,-0.200012l-0.200012,-0.299988l-0.200012,-0.299988l-0.299988,-0.200012l-0.299988,-0.200012l-0.200012,-0.299988l-0.200012,-0.299988l-0.299988,-0.200012l-0.299988,-0.200012l-0.200012,-0.299988l8,-0.299988l8,-0.200012l0,0.200012l0,0.299988l10,0.5q10,0.5 111.5,2q101.5,1.5 102.700012,-0.200012q1.299988,-1.799988 -0.200012,-156.299988q-1.5,-154.5 -2.799988,-165.300003q-1.200012,-10.699997 -35.200012,-15.199997l-34,-4.5l0,-0.300003l0,-0.199997l11,-0.199997l11,-0.300003l-1,-0.5l-1,-0.5l-1.5,-0.5l-1.5,-0.5l1,-0.5l1,-0.5l0.200012,-0.300003l0.299988,-0.199997l0.299988,-0.199997l0.200012,-0.300003l-2.5,-0.5q-2.5,-0.5 -8,-3q-5.5,-2.5 -5,-3q0.5,-0.5 -8.5,-2.5q-9,-2 -11,-3.699997z"/>
  <path id="svg_14" fill="#595959" fill-rule="evenodd" stroke="#595959" stroke-width="0.5px" d="m824,216.800003l0,0.199997l-1.5,0.5q-1.5,0.5 1.700012,153q3.299988,152.5 3.799988,175l0.5,22.5l0.299988,1l0.200012,1l1.200012,33q1.299988,33 1,39.200012q-0.200012,6.299988 1.299988,6.799988q1.5,0.5 -1,1.200012q-2.5,0.799988 -2.5,1.799988l0,1l2.5,0q2.5,0 2.5,1q0,1 1,1.200012l1,0.299988l1,0.5l1,0.5l-0.200012,0.299988l-0.299988,0.200012l-0.299988,1l-0.200012,1l-3,0.200012l-3,0.299988l-0.200012,0.299988l-0.299988,0.200012l-0.299988,0.200012l-0.200012,0.299988l0.5,0.299988l0.5,0.200012l0,0.200012q0,0.299988 -3,1.299988q-3,1 -4.5,2.700012q-1.5,1.799988 -9.5,2.799988q-8,1 -9.200012,-1.5l-1.299988,-2.5l-0.299988,-0.200012l-0.200012,-0.299988l-2,-0.299988l-2,-0.200012l-6.5,-0.200012q-6.5,-0.299988 -8.5,-0.299988q-2,0 -3,1.700012q-1,1.799988 -4,2q-3,0.299988 -5.5,-1.700012l-2.5,-2l-0.200012,-0.299988l-0.299988,-0.200012l-0.299988,-1l-0.200012,-1l-1,-0.200012l-1,-0.299988l-1.5,-0.5l-1.5,-0.5l0,-0.299988l0,-0.200012l0,-1.5l0,-1.5l1.5,-0.200012l1.5,-0.299988l-0.200012,-0.299988l-0.299988,-0.200012l-0.299988,-0.200012l-0.200012,-0.299988l5,-0.5q5,-0.5 9.200012,-1.200012q4.299988,-0.799988 20.599976,-2.799988q16.200012,-2 16.400024,-3.5q0.299988,-1.5 -4,-204l-4.200012,-202.5l0.200012,0q0.299988,0 0.599976,-8.5l0.200012,-8.5l1.5,-0.800003q1.5,-0.699997 2.5,-1.199997l1,-0.5l5,-1.5q5,-1.5 5,-1.199997zm-14.5,448.999985q0.5,-1.299988 1,0q0.5,1.200012 -0.5,1.200012q-1,0 -0.5,-1.200012z"/>
  <path id="svg_15" fill="#3D5A8C" fill-rule="evenodd" stroke="#3D5A8C" stroke-width="0.5px" d="m136,170l1.5,-16l0.5,2q0.5,2 1.199997,0q0.800003,-2 25.800003,0.800003q25,2.699997 30,3.199997l5,0.5l3.5,0.5l3.5,0.5l0,0.300003l0,0.199997l-5.5,0.199997l-5.5,0.300003l0.199997,24.300003q0.300003,24.199997 2.300003,51.199997q2,27 2.5,49.5q0.5,22.5 2.5,87.5q2,65 1.5,116.5q-0.5,51.5 -0.800003,52.299988q-0.199997,0.700012 0.600006,1.400024q0.699997,0.799988 6,2q5.199997,1.299988 27.199997,2.299988q22,1 37.5,1.299988l15.5,0.200012l0,0.200012l0,0.299988l-27,0q-27,0 -62.5,-0.700012l-35.5,-0.799988l-19.5,-0.200012q-19.5,-0.299988 -21.5,-0.799988q-2,-0.5 -3.199997,-1.799988q-1.300003,-1.200012 0.699997,-58.200012q2,-57 2.5,-56q0.5,1 0.5,-4q0,-5 4.5,-124q4.5,-119 6,-135z"/>
  <path id="svg_16" fill="#181818" fill-rule="evenodd" stroke="#181818" stroke-width="0.5px" d="m467,684.200012l32,-0.200012l42,1.200012q42,1.299988 41.5,1.799988q-0.5,0.5 1,0.799988q1.5,0.200012 1.5,1.200012q0,1 6.200012,3q6.299988,2 6,2.5l-0.200012,0.5l-1,0.200012q-1,0.299988 -222,5.799988q-221,5.5 -262,5.5q-41,0 -45,-3.5l-4,-3.5l-0.200001,-0.299988l-0.299999,-0.200012l-0.299999,-0.200012l-0.200001,-0.299988l-0.200001,-0.299988l-0.299999,-0.200012l-0.299999,-0.200012l-0.200001,-0.299988l-0.200001,-0.299988l-0.299999,-0.200012l-0.299999,-0.200012l-0.200001,-0.299988l-0.200001,-0.299988l-0.299999,-0.200012l-0.299999,-0.200012l-0.200001,-0.299988l-0.200001,-0.299988l-0.299999,-0.200012l-0.299999,-1.5l-0.200001,-1.5l1,-0.200012l1,-0.299988l0.200001,-0.299988l0.299999,-0.200012l0.299999,-0.200012l0.200001,-0.299988l1.5,0l1.5,0l0.199997,0.299988l0.300003,0.200012l0.300003,0.200012l0.199997,0.299988l3.5,1.299988q3.5,1.200012 3.699997,3.700012l0.300003,2.5l0.5,-1l0.5,-1l0.5,-4q0.5,-4 0.800003,-4.5l0.199997,-0.5l0.5,-0.200012l0.5,-0.299988l1,0l1,0l92.5,0q92.5,0 178.5,-1.5q86,-1.5 118,-1.799988z"/>
  <path id="svg_17" fill="#121313" fill-rule="evenodd" stroke="#121313" stroke-width="0.5px" d="m360.200012,619l4.799988,-12l0,8l0,8l8,-1.799988q8,-1.700012 48.5,-2.700012q40.5,-1 40.700012,-1.299988q0.299988,-0.200012 0.799988,-2.700012l0.5,-2.5l0.5,4q0.5,4 1,9l0.5,5l0.299988,1l0.200012,1l0,1q0,1 1.200012,1.5q1.299988,0.5 1.599976,6q0.200012,5.5 -2,6q-2.299988,0.5 -2.299988,2.5l0,2l0.299988,0.200012l0.200012,0.299988l0.200012,0.299988l0.299988,0.200012l0.299988,0.200012l0.200012,0.299988l2.5,0.5q2.5,0.5 4.5,0.799988l2,0.200012l0,0.200012l0,0.299988l0.5,0.299988l0.5,0.200012l0,0.200012l0,0.299988l-7.5,0.5q-7.5,0.5 -5.5,1.5q2,1 -10.5,1.299988q-12.5,0.200012 -12.5,1.700012q0,1.5 -6,1.299988q-6,-0.299988 -6.200012,0.400024q-0.299988,0.799988 -14.599976,0.299988q-14.200012,-0.5 -14.200012,-1.5q0,-1 -12,-1.200012q-12,-0.299988 -12.200012,-1q-0.299988,-0.799988 -5.599976,-2.299988l-5.200012,-1.5l-0.200012,0l-0.299988,0l-0.5,-1.5l-0.5,-1.5l-0.5,-1q-0.5,-1 -1.799988,-0.799988q-1.200012,0.299988 -2,-1q-0.700012,-1.200012 -1.700012,-9.700012q-1,-8.5 3.700012,-20.5z"/>
  <path id="svg_18" fill="#282828" fill-rule="evenodd" stroke="#282828" stroke-width="0.5px" d="m962,667.200012l0,-0.200012l1.5,0q1.5,0 1.5,1.5q0,1.5 2.799988,3q2.700012,1.5 3.200012,2q0.5,0.5 0.799988,0.700012l0.200012,0.299988l0.200012,0.299988l0.299988,0.200012l0,3l0,3l-0.299988,3l-0.200012,3l-13,0.200012q-13,0.299988 -187.5,4l-174.5,3.799988l0.200012,-0.5q0.299988,-0.5 -6,-2.5q-6.200012,-2 -6.200012,-3q0,-1 -1.5,-1.200012q-1.5,-0.299988 -1,-0.799988q0.5,-0.5 -41.5,-1.799988l-42,-1.200012l0,-0.200012l0,-0.299988l81.5,-2.5q81.5,-2.5 96,-3l14.5,-0.5l3,-0.5l3,-0.5l1.5,-0.5l1.5,-0.5l0,-0.299988l0,-0.200012l45.5,-0.799988q45.5,-0.700012 49.5,-1l4,-0.200012l74,-1.799988q74,-1.700012 81.5,-2.700012q7.5,-1 7.5,-1.299988z"/>
  <path id="svg_19" fill="#161616" fill-rule="evenodd" stroke="#161616" stroke-width="0.5px" d="m909,414.200012l-4,-0.700012l6.5,-0.299988q6.5,-0.200012 7.700012,25.299988q1.299988,25.5 1.599976,47.5l0.200012,22l-2,-0.200012l-2,-0.299988l-0.200012,-0.299988l-0.299988,-0.200012l-0.5,-6q-0.5,-6 -1.799988,-46q-1.200012,-40 -5.200012,-40.799988z"/>
  <path id="svg_20" fill="#626262" fill-rule="evenodd" stroke="#626262" stroke-width="0.5px" d="m808.5,222.199997l0.5,-0.199997l-0.200012,8.5q-0.299988,8.5 -0.599976,8.5l-0.200012,0l-0.5,0.199997q-0.5,0.300003 -33,15.300003q-32.5,15 -33,20.700012l-0.5,5.799988l-0.200012,0l-0.299988,0l0,-9.5q0,-9.5 0.299988,-13.5l0.200012,-4l1,-0.199997l1,-0.300003l1,-0.5l1,-0.5l31.5,-15q31.5,-15 32,-15.300003z"/>
  <path id="svg_21" fill="#1B1B1B" fill-rule="evenodd" stroke="#1B1B1B" stroke-width="0.5px" d="m822.200012,271.5l-0.200012,-54.5l1,0l1,0l4,3.5q4,3.5 6.200012,10.5q2.299988,7 2.799988,8q0.5,1 -0.200012,1.800003q-0.799988,0.699997 0,1.399994q0.700012,0.800003 0.400024,1.800003q-0.200012,1 0.799988,1q1,0 1.200012,-1.5q0.299988,-1.5 0.599976,-0.5q0.200012,1 2.200012,2.199997q2,1.300003 4.5,1.600006l2.5,0.199997l0,0.199997l0,0.300003l-6,0q-6,0 -7.5,-0.699997l-1.5,-0.800003l1.200012,56q1.299988,56 3.599976,80.799988q2.200012,24.700012 3.700012,25.200012q1.5,0.5 2,0.799988l0.5,0.200012l-1.200012,3.5q-1.299988,3.5 -1.299988,25.5l0,22l0,1.5l0,1.5l-0.299988,-0.200012l-0.200012,-0.299988l-0.200012,-0.299988l-0.299988,-0.200012l-0.5,-11.5q-0.5,-11.5 -1,-26.5q-0.5,-15 -1.200012,-15.5l-0.799988,-0.5l-0.200012,-4.5l-0.299988,-4.5l-0.5,6l-0.5,6l-0.299988,0.200012l-0.200012,0.299988l-0.200012,0.299988l-0.299988,0.200012l0,-3.5l0,-3.5l0,-1.5q0,-1.5 -1.5,-13.5l-1.5,-12l-0.5,-1.5l-0.5,-1.5l0,2l0,2l0,75q0,75 -0.5,80.5q-0.5,5.5 -1,20.5l-0.5,15l-0.299988,0l-0.200012,0l-0.200012,-1l-0.299988,-1l-0.5,-22.5q-0.5,-22.5 -3,-121q-2.5,-98.5 -2.799988,-153z"/>
  <path id="svg_22" fill="#2F3030" fill-rule="evenodd" stroke="#2F3030" stroke-width="0.5px" d="m943,662.799988l4,0.200012l10,0.200012q10,0.299988 7.5,0.799988q-2.5,0.5 -2.5,0.799988l0,0.200012l-4.5,0.200012l-4.5,0.299988l3,0.5l3,0.5l1.5,0.299988l1.5,0.200012l0,0.200012q0,0.299988 -7.5,1.299988q-7.5,1 -81.5,2.700012l-74,1.799988l0,-0.200012l0,-0.299988l1,-0.5l1,-0.5l0.200012,-0.299988l0.299988,-0.200012l0.299988,-0.200012l0.200012,-0.299988l0.200012,-0.299988l0.299988,-0.200012l0,-0.5l0,-0.5l-0.5,-2l-0.5,-2l-0.299988,-0.200012l-0.200012,-0.299988l-1,-0.5l-1,-0.5l0,-0.299988l0,-0.200012l2,0.200012l2,0.299988l0.200012,0.299988l0.299988,0.200012l1.299988,2.5q1.200012,2.5 3,2q1.700012,-0.5 2.200012,-2.5q0.5,-2 1.200012,-0.799988q0.799988,1.299988 5.799988,1.599976q5,0.200012 6.5,-1.599976q1.5,-1.700012 4.5,-2.700012q3,-1 3,-1.299988l0,-0.200012l40,-0.799988q40,-0.700012 53.5,0.299988q13.5,1 14,1.5q0.5,0.5 4.5,0.799988z"/>
  <path id="svg_23" fill="#2A2B2B" fill-rule="evenodd" stroke="#2A2B2B" stroke-width="0.5px" d="m1148,673l0.5,3l0,1l0,1l-0.5,1l-0.5,1l-0.300049,1.5l-0.199951,1.5l-3.5,0.200012q-3.5,0.299988 -38.5,0.299988q-35,0 -75,-1.700012l-40,-1.799988l-0.200012,-2l-0.299988,-2l-0.299988,-0.200012l-0.200012,-0.299988l-0.200012,-0.299988l-0.299988,-0.200012l-0.299988,-2.5l-0.200012,-2.5l1.5,0q1.5,0 2.5,-3.799988q1,-3.700012 6,-7.200012q5,-3.5 21,-8.5q16,-5 24,-6q8,-1 32,0q24,1 38.5,4q14.5,3 21.300049,7.700012q6.699951,4.799988 9.699951,9.299988q3,4.5 3.5,7.5z"/>
  <path id="svg_24" fill="#494F54" fill-rule="evenodd" stroke="#494F54" stroke-width="0.5px" d="m131.5,663.5l-2.5,-1l11.800003,0.299988q11.699997,0.200012 11.399994,0.400024q-0.199997,0.299988 3.300003,0.599976l3.5,0.200012l-0.199997,0.5q-0.300003,0.5 -0.600006,0.700012l-0.199997,0.299988l-1,0.5l-1,0.5l-0.199997,0.299988l-0.300003,0.200012l-0.300003,0.200012l-0.199997,0.299988l0.199997,0.299988l0.300003,0.200012l0.5,2l0.5,2l0.5,1l0.5,1l0.300003,0.200012l0.199997,0.299988l0.800003,0.700012q0.699997,0.799988 -0.300003,1.799988q-1,1 -1.300003,2.5l-0.199997,1.5l1,0.200012l1,0.299988l34,0q34,0 46.5,-0.5l12.5,-0.5l2,-0.299988l2,-0.200012l123.5,-1.799988q123.5,-1.700012 127,-2l3.5,-0.200012l60,-1.200012q60,-1.299988 72,-1.799988q12,-0.5 21,-0.799988l9,-0.200012l0,0.200012l0,0.299988l-1,0.5l-1,0.5l-0.200012,0.299988l-0.299988,0.200012l-0.299988,0.200012l-0.200012,0.299988l15.5,0.299988l15.5,0.200012l0,0.200012l0,0.299988l-1.5,0.5l-1.5,0.5l-3,0.5l-3,0.5l-14.5,0.5q-14.5,0.5 -96,3l-81.5,2.5l0,0.299988l0,0.200012l-32,0.200012q-32,0.299988 -118,1.799988q-86,1.5 -178.5,1.5l-92.5,0l-1,0l-1,0l-0.5,0.299988l-0.5,0.200012l0.199997,-1l0.300003,-1l0.300003,-0.200012l0.199997,-0.299988l0.199997,-0.299988l0.300003,-0.200012l0.300003,-0.200012l0.199997,-0.299988l6.5,-0.299988q6.5,-0.200012 5.699997,-2.200012q-0.699997,-2 0.800003,-6.5q1.5,-4.5 2.800003,-5.700012q1.199997,-1.299988 22.699997,-2.799988l21.5,-1.5l-1.5,-0.5q-1.5,-0.5 -4,-1.5z"/>
  <path id="svg_25" fill="#181818" fill-rule="evenodd" stroke="#181818" stroke-width="0.5px" d="m923,257.799988l0,-0.299988l18.5,1.5q18.5,1.5 19.299988,10.200012q0.700012,8.799988 1,19.299988l0.200012,10.5l-2.5,0l-2.5,0l-0.200012,-1l-0.299988,-1l-0.5,-17q-0.5,-17 -12.799988,-18.5l-12.200012,-1.5l0,-0.200012l0,-0.299988l-4,-0.5q-4,-0.5 -4,-0.799988l0,-0.200012l0,-0.200012z"/>
  <path id="svg_26" fill="#252727" fill-rule="evenodd" stroke="#252727" stroke-width="0.5px" d="m475,655l0,-1l4,0.200012q4,0.299988 6.5,0.599976l2.5,0.200012l0,1l0,1l-1,0.200012l-1,0.299988l1,0.5l1,0.5l0.200012,0.299988l0.299988,0.200012l0.299988,0.200012l0.200012,0.299988l-2.5,0.5l-2.5,0.5l1,0.5l1,0.5l0.200012,0.299988l0.299988,0.200012l0.299988,0.200012l0.200012,0.299988l7,1q7,1 10.799988,2.700012q3.700012,1.799988 4.200012,4.299988q0.5,2.5 0.799988,4l0.200012,1.5l-3.5,0.200012q-3.5,0.299988 -127,2l-123.5,1.799988l-0.199997,-0.5q-0.300003,-0.5 -1.600006,-4.299988l-1.199997,-3.700012l-0.199997,-0.299988l-0.300003,-0.200012l-0.300003,-1q-0.199997,-1 -1.199997,-1.200012l-1,-0.299988l-0.199997,-0.299988l-0.300003,-0.200012l-0.300003,-0.200012l-0.199997,-0.299988l4,-0.5l4,-0.5l-1,-0.5l-1,-0.5l1,-0.5l1,-0.5l0.200012,-0.299988l0.299988,-0.200012l0.299988,-0.200012l0.200012,-0.299988l-4.5,-0.5l-4.5,-0.5l0.199997,-0.299988l0.300003,-0.200012l0.300003,-0.200012l0.199997,-0.299988l0.199997,-0.299988l0.300003,-0.200012l0.300003,0l0.199997,0l1.5,-0.200012l1.5,-0.299988l9,-0.5q9,-0.5 8,-1q-1,-0.5 10.5,-0.799988q11.5,-0.200012 12,1q0.5,1.299988 20.5,1.299988q20,0 26.5,-0.700012q6.5,-0.799988 6.5,-1.799988q0,-1 8.5,-1l8.5,0l0,-1l0,-1l5.200012,1.5q5.299988,1.5 5.599976,2.299988q0.200012,0.700012 12.200012,1q12,0.200012 12,1.200012q0,1 14.200012,1.5q14.299988,0.5 14.599976,-0.299988q0.200012,-0.700012 6.200012,-0.400024q6,0.200012 6,-1.299988q0,-1.5 12.5,-1.700012q12.5,-0.299988 10.5,-1.299988q-2,-1 5,-1.299988q7,-0.200012 7,-1.200012z"/>
  <path id="svg_27" fill="#303334" fill-rule="evenodd" stroke="#303334" stroke-width="0.5px" d="m760.5,658l2.5,0l0,0.200012l0,0.299988l1.5,0.5l1.5,0.5l1,0.299988l1,0.200012l0.200012,1l0.299988,1l0.299988,0.200012l0.200012,0.299988l2.5,2q2.5,2 5.5,1.700012q3,-0.200012 4,-2q1,-1.700012 3,-1.700012q2,0 8.5,0.299988l6.5,0.200012l0,0.200012l0,0.299988l1,0.5l1,0.5l0.200012,0.299988l0.299988,0.200012l0.5,2l0.5,2l0,0.5l0,0.5l-0.299988,0.200012l-0.200012,0.299988l-0.200012,0.299988l-0.299988,0.200012l-0.299988,0.200012l-0.200012,0.299988l-1,0.5l-1,0.5l0,0.299988l0,0.200012l-4,0.200012q-4,0.299988 -49.5,1l-45.5,0.799988l-15.5,-0.200012l-15.5,-0.299988l0.200012,-0.299988l0.299988,-0.200012l0.299988,-0.200012l0.200012,-0.299988l1,-0.5l1,-0.5l0,-0.299988l0,-0.200012l5,0l5,0l-0.200012,-1l-0.299988,-1l-0.299988,-0.200012l-0.200012,-0.299988l0.200012,-0.299988q0.299988,-0.200012 0.799988,-0.700012q0.5,-0.5 -1.799988,-1.299988l-2.200012,-0.700012l0,-0.299988l0,-0.200012l4.200012,-0.5q4.299988,-0.5 3,-1.700012q-1.200012,-1.299988 4,-3q5.299988,-1.799988 6.599976,-3q1.200012,-1.299988 11.700012,-2.299988q10.5,-1 25.5,-1q15,0 16.5,0.5q1.5,0.5 5,0.200012q3.5,-0.200012 3.5,1.299988q0,1.5 2.5,1.5z"/>
  <path id="svg_28" fill="#2D2F2F" fill-rule="evenodd" stroke="#2D2F2F" stroke-width="0.5px" d="m251,660.799988l0,0.200012l-0.199997,0l-0.300003,0l-0.300003,0.200012l-0.199997,0.299988l-0.199997,0.299988l-0.300003,0.200012l-0.300003,0.200012l-0.199997,0.299988l4.5,0.5l4.5,0.5l-0.200012,0.299988l-0.299988,0.200012l-0.299988,0.200012l-0.200012,0.299988l-1,0.5l-1,0.5l1,0.5l1,0.5l-4,0.5l-4,0.5l0.199997,0.299988l0.300003,0.200012l0.300003,0.200012l0.199997,0.299988l1,0.299988q1,0.200012 1.199997,1.200012l0.300003,1l0.300003,0.200012l0.199997,0.299988l1.199997,3.700012q1.300003,3.799988 1.600006,4.299988l0.199997,0.5l-2,0.200012l-2,0.299988l-12.5,0.5q-12.5,0.5 -46.5,0.5l-34,0l-1,-0.299988l-1,-0.200012l0.199997,-1.5q0.300003,-1.5 1.300003,-2.5q1,-1 0.300003,-1.799988l-0.800003,-0.700012l-0.199997,-0.299988l-0.300003,-0.200012l-0.5,-1l-0.5,-1l-0.5,-2l-0.5,-2l-0.300003,-0.200012l-0.199997,-0.299988l0.199997,-0.299988l0.300003,-0.200012l0.300003,-0.200012l0.199997,-0.299988l1,-0.5l1,-0.5l0.199997,-0.299988q0.300003,-0.200012 0.600006,-0.700012l0.199997,-0.5l20,-1.200012q20,-1.299988 26.5,-0.599976q6.5,0.799988 7,0q0.5,-0.700012 13.5,-0.700012q13,0 12,-0.5q-1,-0.5 6,-0.5q7,0 7,0.299988z"/>
  <path id="svg_29" fill="#191919" fill-rule="evenodd" stroke="#191919" stroke-width="0.5px" d="m920.5,308.200012l-13.5,-2.200012l4.5,0.200012l4.5,0.299988l4.5,0.5q4.5,0.5 5.5,0.799988l1,0.200012l13,1.200012q13,1.299988 18,1.599976l5,0.200012l0,2.5l0,2.5l0.200012,8q0.299988,8 0.599976,21.5l0.200012,13.5l-2,-0.200012l-2,-0.299988l-0.200012,-0.299988l-0.299988,-0.200012l-0.5,-13.5q-0.5,-13.5 -0.799988,-22.5q-0.200012,-9 -12.200012,-10.200012q-12,-1.299988 -25.5,-3.599976z"/>
  <path id="svg_30" fill="#373E44" fill-rule="evenodd" stroke="#373E44" stroke-width="0.5px" d="m592,654.200012l17,-0.200012l0,0.200012q0,0.299988 -3.5,0.799988l-3.5,0.5l1,0.5q1,0.5 3.5,1l2.5,0.5l-9.5,0.299988l-9.5,0.200012l0,1.5l0,1.5l13.5,0.799988q13.5,0.700012 13,1.200012q-0.5,0.5 28,2q28.5,1.5 30.5,1.5q2,0 2.5,-0.299988l0.5,-0.200012l0,0.200012l0,0.299988l2.200012,0.700012q2.299988,0.799988 1.799988,1.299988q-0.5,0.5 -0.799988,0.700012l-0.200012,0.299988l0.200012,0.299988l0.299988,0.200012l0.299988,1l0.200012,1l-5,0l-5,0l-9,0.200012q-9,0.299988 -21,0.799988q-12,0.5 -72,1.799988l-60,1.200012l-0.200012,-1.5q-0.299988,-1.5 -0.799988,-4q-0.5,-2.5 -4.200012,-4.299988q-3.799988,-1.700012 -10.799988,-2.700012l-7,-1l-0.200012,-0.299988l-0.299988,-0.200012l-0.299988,-0.200012l-0.200012,-0.299988l-1,-0.5l-1,-0.5l2.5,-0.5l2.5,-0.5l-0.200012,-0.299988l-0.299988,-0.200012l-0.299988,-0.200012l-0.200012,-0.299988l-1,-0.5l-1,-0.5l1,-0.299988l1,-0.200012l0,-1l0,-1l43.5,-0.200012q43.5,-0.299988 60.5,-0.599976z"/>
  <path id="svg_31" fill="#283C6E" fill-rule="evenodd" stroke="#283C6E" stroke-width="0.5px" d="m954.200012,525.200012l-4.700012,-0.200012l-2.5,-2q-2.5,-2 -3.5,-5q-1,-3 -0.5,-8q0.5,-5 3.200012,-7.799988q2.799988,-2.700012 8.299988,-2.200012q5.5,0.5 7.700012,3.200012q2.299988,2.799988 2.299988,9.299988q0,6.5 -2.700012,9.700012q-2.799988,3.299988 -7.599976,3z"/>
 </g>
</svg>